<svg xmlns="http://www.w3.org/2000/svg" width="213.76000000000002" height="35" viewBox="0 0 213.76000000000002 35"><rect class="svg__rect" x="0" y="0" width="106.4" height="35" fill="#470A7E"/><rect class="svg__rect" x="104.4" y="0" width="109.36000000000001" height="35" fill="#DBDBDB"/><path class="svg__text" d="M15.69 22L14.22 22L14.22 13.47L16.14 13.47L18.60 20.01L21.06 13.47L22.97 13.47L22.97 22L21.49 22L21.49 19.19L21.64 15.43L19.12 22L18.06 22L15.55 15.43L15.69 19.19L15.69 22ZM29.75 18.86L26.89 13.47L28.53 13.47L30.49 17.51L32.46 13.47L34.10 13.47L31.24 18.86L31.24 22L29.75 22L29.75 18.86ZM39.69 14.66L37.06 14.66L37.06 13.47L43.82 13.47L43.82 14.66L41.16 14.66L41.16 22L39.69 22L39.69 14.66ZM49.06 22L47.58 22L47.58 13.47L49.06 13.47L49.06 17.02L52.88 17.02L52.88 13.47L54.35 13.47L54.35 22L52.88 22L52.88 18.21L49.06 18.21L49.06 22ZM60.66 22L59.18 22L59.18 13.47L60.66 13.47L60.66 22ZM65.20 18.19L65.20 18.19L65.20 17.39Q65.20 16.19 65.63 15.27Q66.06 14.35 66.85 13.85Q67.65 13.35 68.70 13.35L68.70 13.35Q70.12 13.35 70.98 14.12Q71.84 14.89 71.98 16.29L71.98 16.29L70.50 16.29Q70.40 15.37 69.97 14.96Q69.54 14.55 68.70 14.55L68.70 14.55Q67.74 14.55 67.22 15.26Q66.70 15.96 66.69 17.33L66.69 17.33L66.69 18.09Q66.69 19.47 67.18 20.20Q67.68 20.92 68.63 20.92L68.63 20.92Q69.51 20.92 69.95 20.53Q70.39 20.14 70.50 19.22L70.50 19.22L71.98 19.22Q71.85 20.59 70.97 21.35Q70.09 22.12 68.63 22.12L68.63 22.12Q67.61 22.12 66.84 21.63Q66.06 21.15 65.64 20.26Q65.22 19.37 65.20 18.19ZM77.07 22L75.53 22L78.75 13.47L80.08 13.47L83.31 22L81.76 22L81.07 20.01L77.76 20.01L77.07 22ZM79.41 15.28L78.18 18.82L80.65 18.82L79.41 15.28ZM92.62 22L87.27 22L87.27 13.47L88.75 13.47L88.75 20.82L92.62 20.82L92.62 22Z" fill="#FFFFFF"/><path class="svg__text" d="M118.00 21.24L118.00 21.24L118.78 19.49Q119.34 19.86 120.09 20.09Q120.83 20.32 121.55 20.32L121.55 20.32Q122.92 20.32 122.92 19.64L122.92 19.64Q122.92 19.28 122.53 19.11Q122.14 18.93 121.28 18.74L121.28 18.74Q120.33 18.53 119.69 18.30Q119.06 18.06 118.60 17.55Q118.15 17.03 118.15 16.16L118.15 16.16Q118.15 15.39 118.57 14.77Q118.99 14.15 119.82 13.79Q120.66 13.43 121.86 13.43L121.86 13.43Q122.69 13.43 123.50 13.62Q124.30 13.80 124.92 14.17L124.92 14.17L124.18 15.93Q122.98 15.28 121.85 15.28L121.85 15.28Q121.14 15.28 120.82 15.49Q120.50 15.70 120.50 16.04L120.50 16.04Q120.50 16.37 120.88 16.54Q121.27 16.71 122.12 16.89L122.12 16.89Q123.08 17.10 123.71 17.33Q124.34 17.56 124.80 18.07Q125.26 18.58 125.26 19.46L125.26 19.46Q125.26 20.21 124.84 20.83Q124.42 21.44 123.58 21.80Q122.74 22.17 121.54 22.17L121.54 22.17Q120.52 22.17 119.56 21.92Q118.60 21.67 118.00 21.24ZM131.26 22L128.83 22L132.54 13.60L134.88 13.60L138.60 22L136.13 22L135.47 20.37L131.92 20.37L131.26 22ZM133.69 15.93L132.61 18.61L134.77 18.61L133.69 15.93ZM145.13 22L142.75 22L142.75 13.60L145.13 13.60L145.13 22ZM149.72 21.24L149.72 21.24L150.50 19.49Q151.06 19.86 151.80 20.09Q152.55 20.32 153.27 20.32L153.27 20.32Q154.63 20.32 154.64 19.64L154.64 19.64Q154.64 19.28 154.25 19.11Q153.86 18.93 152.99 18.74L152.99 18.74Q152.04 18.53 151.41 18.30Q150.77 18.06 150.32 17.55Q149.87 17.03 149.87 16.16L149.87 16.16Q149.87 15.39 150.28 14.77Q150.70 14.15 151.54 13.79Q152.37 13.43 153.58 13.43L153.58 13.43Q154.41 13.43 155.21 13.62Q156.02 13.80 156.63 14.17L156.63 14.17L155.90 15.93Q154.70 15.28 153.57 15.28L153.57 15.28Q152.86 15.28 152.54 15.49Q152.21 15.70 152.21 16.04L152.21 16.04Q152.21 16.37 152.60 16.54Q152.98 16.71 153.83 16.89L153.83 16.89Q154.79 17.10 155.42 17.33Q156.05 17.56 156.52 18.07Q156.98 18.58 156.98 19.46L156.98 19.46Q156.98 20.21 156.56 20.83Q156.14 21.44 155.30 21.80Q154.46 22.17 153.26 22.17L153.26 22.17Q152.24 22.17 151.28 21.92Q150.32 21.67 149.72 21.24ZM161.13 17.80L161.13 17.80Q161.13 16.55 161.73 15.55Q162.33 14.56 163.40 14.00Q164.46 13.43 165.79 13.43L165.79 13.43Q167.12 13.43 168.18 14.00Q169.25 14.56 169.85 15.55Q170.46 16.55 170.46 17.80L170.46 17.80Q170.46 19.05 169.85 20.04Q169.25 21.04 168.19 21.60Q167.13 22.17 165.79 22.17L165.79 22.17Q164.46 22.17 163.40 21.60Q162.33 21.04 161.73 20.04Q161.13 19.05 161.13 17.80ZM163.52 17.80L163.52 17.80Q163.52 18.51 163.83 19.05Q164.13 19.60 164.64 19.90Q165.16 20.20 165.79 20.20L165.79 20.20Q166.43 20.20 166.95 19.90Q167.46 19.60 167.76 19.05Q168.06 18.51 168.06 17.80L168.06 17.80Q168.06 17.09 167.76 16.54Q167.46 16 166.95 15.70Q166.43 15.40 165.79 15.40L165.79 15.40Q165.15 15.40 164.64 15.70Q164.13 16 163.83 16.54Q163.52 17.09 163.52 17.80ZM177.52 22L175.19 22L175.19 13.60L177.15 13.60L180.86 18.07L180.86 13.60L183.18 13.60L183.18 22L181.23 22L177.52 17.52L177.52 22ZM194.43 21.34L194.43 21.34L195.29 19.55Q195.79 19.88 196.40 20.07Q197.02 20.25 197.63 20.25L197.63 20.25Q198.23 20.25 198.59 20.02Q198.96 19.79 198.96 19.37L198.96 19.37Q198.96 18.55 197.67 18.55L197.67 18.55L196.68 18.55L196.68 17.05L198.18 15.44L194.87 15.44L194.87 13.60L200.94 13.60L200.94 15.09L199.20 16.96Q200.24 17.18 200.80 17.82Q201.36 18.46 201.36 19.37L201.36 19.37Q201.36 20.11 200.95 20.75Q200.55 21.39 199.73 21.78Q198.91 22.17 197.70 22.17L197.70 22.17Q196.80 22.17 195.93 21.95Q195.06 21.74 194.43 21.34Z" fill="#000000" x="117.4"/></svg>